<svg width="19" height="19" viewBox="0 0 19 19" fill="none" xmlns="http://www.w3.org/2000/svg">
<path d="M18.62 11.1718V9.30993C18.62 8.52871 18.617 7.13625 18.6051 6.51685H0.00935926C-0.00267407 7.13625 0.000334257 8.52871 0.000334257 9.30993V11.1718C0.000334257 14.6828 0.000334263 16.4382 1.09109 17.529C2.18177 18.6198 3.93729 18.6198 7.44818 18.6198H11.1722C14.6831 18.6198 16.4387 18.6198 17.5293 17.529C18.62 16.4382 18.62 14.6828 18.62 11.1718Z" fill="#9282FA" fill-opacity="0.4"/>
<path d="M4.59971 0C4.98684 0 5.30073 0.301783 5.30073 0.674104V2.03403C5.92251 2.02247 6.61949 2.02247 7.40372 2.02247H11.1425C11.9267 2.02247 12.6237 2.02247 13.2455 2.03403V0.674104C13.2455 0.301783 13.5593 0 13.9465 0C14.3336 0 14.6475 0.301783 14.6475 0.674104V2.09372C15.9928 2.19727 16.876 2.45155 17.5249 3.07555C18.1737 3.69954 18.4381 4.54892 18.5459 5.84266L18.62 6.51684H0.000366211V5.84266C0.108112 4.54892 0.372529 3.69954 1.02138 3.07555C1.67023 2.45155 2.55341 2.19727 3.89869 2.09372V0.674104C3.89869 0.301783 4.21259 0 4.59971 0Z" fill="#9282FA"/>
</svg>
